<svg width="8" height="8" viewBox="0 0 8 8" fill="none" xmlns="http://www.w3.org/2000/svg">
<path d="M2.90466 2.86432L2.52991 3.43219L2.23743 2.98895C1.74078 2.23645 0.906005 1.78717 0.00445453 1.78717L0.00445456 1.16168C1.11682 1.16168 2.14673 1.71594 2.75946 2.64441L2.90466 2.86432ZM6.52557 8L8 6.52557L6.52557 5.05115L6.08325 5.49347L6.80261 6.21283L6.55432 6.21283C5.65271 6.21283 4.81793 5.76355 4.32135 5.01105L4.02881 4.56781L3.65411 5.13562L3.79925 5.35559C4.41199 6.284 5.44189 6.83832 6.55432 6.83832L6.80261 6.83832L6.08325 7.55768L6.52557 8ZM2.75952 5.35559L4.32135 2.98895C4.81793 2.23645 5.65271 1.78717 6.55432 1.78717L6.80261 1.78717L6.08325 2.50653L6.52557 2.94885L8 1.47443L6.52557 -6.44492e-08L6.08325 0.442322L6.80261 1.16168L6.55432 1.16168C5.44189 1.16168 4.41199 1.71594 3.79925 2.64441L2.23743 5.01105C1.74078 5.76355 0.906005 6.21283 0.00445434 6.21283L0.00445431 6.83832C1.11682 6.83832 2.14679 6.28406 2.75952 5.35559Z" fill="#563BC2"/>
</svg>
