<svg width="15" height="15" viewBox="0 0 15 15" fill="none" xmlns="http://www.w3.org/2000/svg">
<path d="M15 4.95117C15 3.97236 15 3.28761 15 3.22266C15 2.49571 14.4086 1.9043 13.6816 1.9043H13.5059V3.51562C13.5059 3.75832 13.3091 3.95508 13.0664 3.95508C12.8237 3.95508 12.627 3.75832 12.627 3.51562C12.627 3.02229 12.627 1.66312 12.627 1.17188C12.627 0.92918 12.4302 0.732422 12.1875 0.732422C11.9448 0.732422 11.748 0.92918 11.748 1.17188V1.9043H8.81836V3.51562C8.81836 3.75832 8.6216 3.95508 8.37891 3.95508C8.13621 3.95508 7.93945 3.75832 7.93945 3.51562C7.93945 3.02229 7.93945 1.66312 7.93945 1.17188C7.93945 0.92918 7.7427 0.732422 7.5 0.732422C7.2573 0.732422 7.06055 0.92918 7.06055 1.17188V1.9043H4.13086V3.51562C4.13086 3.75832 3.9341 3.95508 3.69141 3.95508C3.44871 3.95508 3.25195 3.75832 3.25195 3.51562C3.25195 3.02229 3.25195 1.66312 3.25195 1.17188C3.25195 0.92918 3.0552 0.732422 2.8125 0.732422C2.5698 0.732422 2.37305 0.92918 2.37305 1.17188V1.9043H1.31836C0.591416 1.9043 0 2.49571 0 3.22266V4.95117H15Z" fill="#A7A7A7"/>
<path d="M0 5.83008V12.9492C0 13.6762 0.591416 14.2676 1.31836 14.2676H13.6816C14.4086 14.2676 15 13.6762 15 12.9492C15 12.761 15 8.64809 15 5.83008C14.7265 5.83008 0.151289 5.83008 0 5.83008ZM4.21875 11.9238H3.28125C3.03855 11.9238 2.8418 11.7271 2.8418 11.4844C2.8418 11.2417 3.03855 11.0449 3.28125 11.0449H4.21875C4.46145 11.0449 4.6582 11.2417 4.6582 11.4844C4.6582 11.7271 4.46145 11.9238 4.21875 11.9238ZM4.21875 10.0488H3.28125C3.03855 10.0488 2.8418 9.85207 2.8418 9.60938C2.8418 9.36668 3.03855 9.16992 3.28125 9.16992H4.21875C4.46145 9.16992 4.6582 9.36668 4.6582 9.60938C4.6582 9.85207 4.46145 10.0488 4.21875 10.0488ZM4.21875 8.17383H3.28125C3.03855 8.17383 2.8418 7.97707 2.8418 7.73438C2.8418 7.49168 3.03855 7.29492 3.28125 7.29492H4.21875C4.46145 7.29492 4.6582 7.49168 4.6582 7.73438C4.6582 7.97707 4.46145 8.17383 4.21875 8.17383ZM7.96875 11.9238H7.03125C6.78855 11.9238 6.5918 11.7271 6.5918 11.4844C6.5918 11.2417 6.78855 11.0449 7.03125 11.0449H7.96875C8.21144 11.0449 8.4082 11.2417 8.4082 11.4844C8.4082 11.7271 8.21144 11.9238 7.96875 11.9238ZM7.96875 10.0488H7.03125C6.78855 10.0488 6.5918 9.85207 6.5918 9.60938C6.5918 9.36668 6.78855 9.16992 7.03125 9.16992H7.96875C8.21144 9.16992 8.4082 9.36668 8.4082 9.60938C8.4082 9.85207 8.21144 10.0488 7.96875 10.0488ZM7.96875 8.17383H7.03125C6.78855 8.17383 6.5918 7.97707 6.5918 7.73438C6.5918 7.49168 6.78855 7.29492 7.03125 7.29492H7.96875C8.21144 7.29492 8.4082 7.49168 8.4082 7.73438C8.4082 7.97707 8.21144 8.17383 7.96875 8.17383ZM11.7188 11.9238H10.7812C10.5386 11.9238 10.3418 11.7271 10.3418 11.4844C10.3418 11.2417 10.5386 11.0449 10.7812 11.0449H11.7188C11.9614 11.0449 12.1582 11.2417 12.1582 11.4844C12.1582 11.7271 11.9614 11.9238 11.7188 11.9238ZM11.7188 10.0488H10.7812C10.5386 10.0488 10.3418 9.85207 10.3418 9.60938C10.3418 9.36668 10.5386 9.16992 10.7812 9.16992H11.7188C11.9614 9.16992 12.1582 9.36668 12.1582 9.60938C12.1582 9.85207 11.9614 10.0488 11.7188 10.0488ZM11.7188 8.17383H10.7812C10.5386 8.17383 10.3418 7.97707 10.3418 7.73438C10.3418 7.49168 10.5386 7.29492 10.7812 7.29492H11.7188C11.9614 7.29492 12.1582 7.49168 12.1582 7.73438C12.1582 7.97707 11.9614 8.17383 11.7188 8.17383Z" fill="#A7A7A7"/>
</svg>
