<svg width="13" height="13" viewBox="0 0 13 13" fill="none" xmlns="http://www.w3.org/2000/svg">
<path d="M11.8981 1.36202C10.4733 -0.032074 8.19551 -0.0317708 6.77107 1.36271L0.796821 7.33698C-0.283442 8.44271 -0.262797 10.2148 0.842935 11.2951C1.93047 12.3576 3.66735 12.3576 4.75489 11.2951L10.1647 5.88528C10.8679 5.182 10.8679 4.04173 10.1647 3.33845C9.46139 2.63517 8.32112 2.63517 7.61784 3.33845L2.44326 8.513C2.26278 8.69988 2.26796 8.99767 2.45484 9.17816C2.63714 9.35423 2.92615 9.35423 3.10845 9.17816L8.283 4.00361C8.62614 3.67489 9.17079 3.68661 9.49948 4.02974C9.81825 4.36251 9.81825 4.88735 9.49948 5.22012L4.08973 10.6299C3.35892 11.3503 2.18243 11.3419 1.46201 10.611C0.748861 9.88761 0.748861 8.72557 1.46201 8.00214L7.43625 2.02787C8.50042 0.963321 10.2261 0.963018 11.2906 2.02716C12.3552 3.09129 12.3555 4.81695 11.2913 5.8815L5.31705 11.8558C5.11972 12.0248 5.09673 12.3217 5.26572 12.5191C5.43471 12.7164 5.73168 12.7394 5.92901 12.5704C5.94742 12.5546 5.96456 12.5375 5.98033 12.5191L11.9546 6.54479C13.3702 5.09801 13.3449 2.77759 11.8981 1.36202Z" fill="#A4A1A1"/>
</svg>
