<svg width="168" height="13" viewBox="0 0 168 13" fill="none" xmlns="http://www.w3.org/2000/svg">
<g clip-path="url(#clip0)">
<path d="M94.5549 4.80308L97.7954 5.32156L95.3934 7.80692L95.1318 8.07761L95.1926 8.44912L95.752 11.8716L92.882 10.2914L92.5202 10.0923L92.1585 10.2914L89.2256 11.9062L89.8067 8.45258L89.8698 8.07758L89.6046 7.80506L87.151 5.28374L90.4544 4.80474L90.8433 4.74835L91.0183 4.39649L92.5425 1.33204L93.9962 4.38495L94.1657 4.74081L94.5549 4.80308Z" stroke="#FFA400" stroke-width="1.5"/>
</g>
<g clip-path="url(#clip1)">
<path d="M8.55488 4.80308L11.7954 5.32156L9.39345 7.80692L9.13184 8.07761L9.19257 8.44912L9.75201 11.8716L6.88197 10.2914L6.52025 10.0923L6.15853 10.2914L3.22559 11.9062L3.80673 8.45258L3.86983 8.07758L3.60462 7.80506L1.15098 5.28374L4.45443 4.80474L4.84334 4.74835L5.01834 4.39649L6.54246 1.33204L7.99623 4.38495L8.16569 4.74081L8.55488 4.80308Z" stroke="#BA1417" stroke-width="1.5"/>
</g>
<g clip-path="url(#clip2)">
<path d="M112.555 4.80308L115.795 5.32156L113.393 7.80692L113.132 8.07761L113.193 8.44912L113.752 11.8716L110.882 10.2914L110.52 10.0923L110.159 10.2914L107.226 11.9062L107.807 8.45258L107.87 8.07758L107.605 7.80506L105.151 5.28374L108.454 4.80474L108.843 4.74835L109.018 4.39649L110.542 1.33204L111.996 4.38495L112.166 4.74081L112.555 4.80308Z" stroke="#D7E317" stroke-width="1.5"/>
</g>
<g clip-path="url(#clip3)">
<path d="M25.5549 4.80308L28.7954 5.32156L26.3934 7.80692L26.1318 8.07761L26.1926 8.44912L26.752 11.8716L23.882 10.2914L23.5202 10.0923L23.1585 10.2914L20.2256 11.9062L20.8067 8.45258L20.8698 8.07758L20.6046 7.80506L18.151 5.28374L21.4544 4.80474L21.8433 4.74835L22.0183 4.39649L23.5425 1.33204L24.9962 4.38495L25.1657 4.74081L25.5549 4.80308Z" stroke="#CD0800" stroke-width="1.5"/>
</g>
<g clip-path="url(#clip4)">
<path d="M129.426 8.44002L129.935 11.8154L127.402 10.3043L127.018 10.0752L126.634 10.3043L124.042 11.8499L124.571 8.44324L124.626 8.09163L124.388 7.82693L122.099 5.27912L125.128 4.80341L125.525 4.74099L125.693 4.37542L127.037 1.44834L128.319 4.3643L128.481 4.73275L128.877 4.80148L131.849 5.31664L129.608 7.82885L129.374 8.09171L129.426 8.44002Z" stroke="#00E355" stroke-width="1.5"/>
</g>
<g clip-path="url(#clip5)">
<path d="M43.4261 8.44002L43.9354 11.8154L41.4019 10.3043L41.0177 10.0752L40.6335 10.3043L38.0422 11.8499L38.5713 8.44324L38.6259 8.09163L38.3882 7.82693L36.0995 5.27912L39.1278 4.80341L39.5252 4.74099L39.6931 4.37542L41.0369 1.44834L42.3186 4.3643L42.4806 4.73275L42.8771 4.80148L45.8492 5.31664L43.6081 7.82885L43.3736 8.09171L43.4261 8.44002Z" stroke="#F40200" stroke-width="1.5"/>
</g>
<g clip-path="url(#clip6)">
<path d="M146.555 4.80308L149.795 5.32156L147.393 7.80692L147.132 8.07761L147.193 8.44912L147.752 11.8716L144.882 10.2914L144.52 10.0923L144.159 10.2914L141.226 11.9062L141.807 8.45258L141.87 8.07758L141.605 7.80506L139.151 5.28374L142.454 4.80474L142.843 4.74835L143.018 4.39649L144.542 1.33204L145.996 4.38495L146.166 4.74081L146.555 4.80308Z" stroke="#00D086" stroke-width="1.5"/>
</g>
<g clip-path="url(#clip7)">
<path d="M59.5549 4.80308L62.7954 5.32156L60.3934 7.80692L60.1318 8.07761L60.1926 8.44911L60.752 11.8716L57.882 10.2914L57.5202 10.0923L57.1585 10.2914L54.2256 11.9062L54.8067 8.45258L54.8698 8.07758L54.6046 7.80506L52.151 5.28374L55.4544 4.80474L55.8433 4.74835L56.0183 4.39649L57.5425 1.33204L58.9962 4.38495L59.1657 4.74081L59.5549 4.80308Z" stroke="#FD5413" stroke-width="1.5"/>
</g>
<g clip-path="url(#clip8)">
<path d="M163.555 4.80308L166.795 5.32156L164.393 7.80692L164.132 8.07761L164.193 8.44912L164.752 11.8716L161.882 10.2914L161.52 10.0923L161.159 10.2914L158.226 11.9062L158.807 8.45258L158.87 8.07758L158.605 7.80506L156.151 5.28374L159.454 4.80474L159.843 4.74835L160.018 4.39649L161.542 1.33204L162.996 4.38495L163.166 4.74081L163.555 4.80308Z" stroke="#00AB23" stroke-width="1.5"/>
</g>
<g clip-path="url(#clip9)">
<path d="M77.5549 4.80308L80.7954 5.32156L78.3934 7.80692L78.1318 8.07761L78.1926 8.44912L78.752 11.8716L75.882 10.2914L75.5202 10.0923L75.1585 10.2914L72.2256 11.9062L72.8067 8.45258L72.8698 8.07758L72.6046 7.80506L70.151 5.28374L73.4544 4.80474L73.8433 4.74835L74.0183 4.39649L75.5425 1.33204L76.9962 4.38495L77.1657 4.74081L77.5549 4.80308Z" stroke="#FF7500" stroke-width="1.5"/>
</g>
<defs>
<clipPath id="clip0">
<rect width="13" height="13" fill="white" transform="translate(86)"/>
</clipPath>
<clipPath id="clip1">
<rect width="13" height="13" fill="white"/>
</clipPath>
<clipPath id="clip2">
<rect width="13" height="13" fill="white" transform="translate(104)"/>
</clipPath>
<clipPath id="clip3">
<rect width="13" height="13" fill="white" transform="translate(17)"/>
</clipPath>
<clipPath id="clip4">
<rect width="12" height="13" fill="white" transform="translate(121)"/>
</clipPath>
<clipPath id="clip5">
<rect width="12" height="13" fill="white" transform="translate(35)"/>
</clipPath>
<clipPath id="clip6">
<rect width="13" height="13" fill="white" transform="translate(138)"/>
</clipPath>
<clipPath id="clip7">
<rect width="13" height="13" fill="white" transform="translate(51)"/>
</clipPath>
<clipPath id="clip8">
<rect width="13" height="13" fill="white" transform="translate(155)"/>
</clipPath>
<clipPath id="clip9">
<rect width="13" height="13" fill="white" transform="translate(69)"/>
</clipPath>
</defs>
</svg>
