<svg width="15" height="9" viewBox="0 0 15 9" fill="none" xmlns="http://www.w3.org/2000/svg">
    <path d="M14.888 4.20688C14.7541 4.05753 11.5337 0.544922 7.50001 0.544922C3.46636 0.544922 0.245933 4.05753 0.112017 4.20688C-0.0373389 4.37382 -0.0373389 4.62618 0.112017 4.79312C0.245933 4.94247 3.46642 8.45508 7.50001 8.45508C11.5336 8.45508 14.7541 4.94247 14.888 4.79312C15.0373 4.62618 15.0373 4.37382 14.888 4.20688ZM7.50001 7.57617C5.80399 7.57617 4.42384 6.19603 4.42384 4.5C4.42384 2.80397 5.80399 1.42383 7.50001 1.42383C9.19604 1.42383 10.5762 2.80397 10.5762 4.5C10.5762 6.19603 9.19604 7.57617 7.50001 7.57617Z" fill="#D4D4D7"/>
    <g x="5" y="2" width="5" height="5" viewBox="0 0 5 5" fill="none">
        <path style="
                transform: translate(5px, 2px);" d="M2.93945 1.62109C2.93945 1.179 3.15892 0.790088 3.49278 0.550879C3.19319 0.39751 2.85903 0.302734 2.5 0.302734C1.28849 0.302734 0.302734 1.28849 0.302734 2.5C0.302734 3.71151 1.28849 4.69727 2.5 4.69727C3.58469 4.69727 4.48246 3.90525 4.65982 2.87037C3.77488 3.15528 2.93945 2.486 2.93945 1.62109Z" fill="#D4D4D7"/>
    </g>
</svg>
