<svg width="9" height="9" viewBox="0 0 9 9" fill="none" xmlns="http://www.w3.org/2000/svg">
<g clip-path="url(#clip0)">
<path d="M8.966 8.14995L8.34814 6.35183C8.64532 5.75112 8.80248 5.08155 8.80354 4.40782C8.80533 3.24763 8.35644 2.1506 7.53952 1.31887C6.72247 0.486992 5.6337 0.0187467 4.47381 0.000342491C3.86612 -0.00941335 3.27644 0.102559 2.72027 0.332779C2.18384 0.554843 1.70278 0.876505 1.29047 1.28882C0.878138 1.70113 0.556476 2.18219 0.334429 2.71862C0.104209 3.27479 -0.00764036 3.86476 0.00197486 4.47216C0.020344 5.63205 0.488607 6.72081 1.32049 7.53788C2.1506 8.3532 3.2448 8.80195 4.40249 8.80194C4.40476 8.80194 4.40715 8.80194 4.40942 8.80194C5.08315 8.80088 5.75272 8.64372 6.35345 8.34654L8.15157 8.96439C8.22072 8.98816 8.29159 8.99974 8.3617 8.99974C8.52823 8.99974 8.69023 8.93432 8.81307 8.81145C8.9876 8.63691 9.04622 8.38344 8.966 8.14995ZM8.43575 8.43415C8.41805 8.45185 8.38015 8.47871 8.32494 8.45976L6.41958 7.80505C6.3914 7.79538 6.3621 7.79056 6.33288 7.79056C6.28982 7.79056 6.24695 7.80099 6.20812 7.82154C5.65745 8.11286 5.03518 8.26737 4.40858 8.26832C2.30711 8.27171 0.568781 6.56483 0.535488 4.4637C0.518736 3.40657 0.920852 2.41304 1.66776 1.66613C2.41467 0.919237 3.40791 0.517191 4.46533 0.533908C6.56644 0.567218 8.27319 2.30469 8.26992 4.40699C8.26894 5.03362 8.11444 5.65588 7.82314 6.20651C7.78865 6.27169 7.78269 6.34825 7.80665 6.41798L8.46136 8.32334C8.48033 8.37852 8.45347 8.41647 8.43575 8.43415Z" fill="#563BC2"/>
<path d="M4.35778 6.37646C4.21823 6.37646 4.08453 6.49918 4.09098 6.64327C4.09745 6.78781 4.20821 6.91007 4.35778 6.91007C4.49734 6.91007 4.63104 6.78736 4.62458 6.64327C4.61812 6.4987 4.50736 6.37646 4.35778 6.37646Z" fill="#563BC2"/>
<path d="M4.3578 2.24438C3.62587 2.24438 3.0304 2.83986 3.0304 3.57179C3.0304 3.71913 3.14986 3.83859 3.2972 3.83859C3.44454 3.83859 3.564 3.71913 3.564 3.57179C3.564 3.1341 3.92011 2.77799 4.3578 2.77799C4.7955 2.77799 5.15161 3.1341 5.15161 3.57179C5.15161 4.00949 4.7955 4.3656 4.3578 4.3656C4.21046 4.3656 4.091 4.48506 4.091 4.6324V5.72058C4.091 5.86792 4.21046 5.98738 4.3578 5.98738C4.50514 5.98738 4.6246 5.86793 4.6246 5.72056V4.87226C5.2291 4.74842 5.68521 4.21238 5.68521 3.57179C5.68521 2.83986 5.08974 2.24438 4.3578 2.24438Z" fill="#563BC2"/>
</g>
<defs>
<clipPath id="clip0">
<rect width="9" height="9" fill="white"/>
</clipPath>
</defs>
</svg>
