<svg width="10" height="10" viewBox="0 0 10 10" fill="none" xmlns="http://www.w3.org/2000/svg">
<path d="M10 6.76758C10 5.30998 9.01787 4.03648 7.6329 3.65273C7.54585 1.62384 5.8683 0 3.81836 0C1.71288 0 0 1.71288 0 3.81836C0 4.50455 0.182648 5.17265 0.52948 5.7592L0.0140381 7.6226L1.87752 7.10724C2.41669 7.42607 3.0249 7.60567 3.65265 7.63275C4.03633 9.01779 5.30991 10 6.76758 10C7.3494 10 7.91519 9.84505 8.41232 9.55063L9.98589 9.98589L9.55063 8.41232C9.84505 7.91519 10 7.3494 10 6.76758ZM1.96999 6.47369L0.854416 6.7823L1.16302 5.66673L1.09268 5.55672C0.761185 5.03807 0.585938 4.43695 0.585938 3.81836C0.585938 2.03598 2.03598 0.585938 3.81836 0.585938C5.60074 0.585938 7.05078 2.03598 7.05078 3.81836C7.05078 5.60074 5.60074 7.05078 3.81836 7.05078C3.19977 7.05078 2.59872 6.87553 2.08 6.54404L1.96999 6.47369ZM9.14558 9.14558L8.31779 8.91655L8.20724 8.98849C7.7787 9.26689 7.28081 9.41406 6.76758 9.41406C5.62195 9.41406 4.61525 8.67332 4.25858 7.61116C6.01288 7.40891 7.40891 6.01288 7.61124 4.2585C8.67332 4.61525 9.41406 5.62195 9.41406 6.76758C9.41406 7.28081 9.26689 7.7787 8.98849 8.20724L8.91655 8.31779L9.14558 9.14558Z" fill="#563BC2"/>
<path d="M3.52539 5.29297H4.11133V5.87891H3.52539V5.29297Z" fill="#563BC2"/>
<path d="M4.4043 2.92969C4.4043 3.09608 4.33655 3.24966 4.21356 3.3622L3.52539 3.99208V4.70703H4.11133V4.25011L4.60915 3.79448C4.8513 3.57285 4.99023 3.25768 4.99023 2.92969C4.99023 2.28348 4.46457 1.75781 3.81836 1.75781C3.17215 1.75781 2.64648 2.28348 2.64648 2.92969H3.23242C3.23242 2.60658 3.49525 2.34375 3.81836 2.34375C4.14146 2.34375 4.4043 2.60658 4.4043 2.92969Z" fill="#563BC2"/>
</svg>
