<svg width="9" height="9" viewBox="0 0 9 9" fill="none" xmlns="http://www.w3.org/2000/svg">
<g clip-path="url(#clip0)">
<path d="M7.9013 1.07544H1.10056C0.493482 1.07544 0 1.56892 0 2.176V6.82404C0 7.43112 0.493482 7.9246 1.10056 7.9246H7.89944C8.50652 7.9246 9 7.43112 9 6.82404V2.17786C9.00186 1.57078 8.50838 1.07544 7.9013 1.07544ZM8.49907 6.82404C8.49907 7.15365 8.23091 7.42181 7.9013 7.42181H1.10056C0.77095 7.42181 0.502793 7.15365 0.502793 6.82404V2.17786C0.502793 1.84825 0.77095 1.5801 1.10056 1.5801H7.89944C8.22905 1.5801 8.49721 1.84825 8.49721 2.17786V6.82404H8.49907Z" fill="#563BC2"/>
<path d="M5.67596 4.44237L7.87708 2.46844C7.9795 2.37533 7.98881 2.21704 7.8957 2.11276C7.80259 2.01034 7.64431 2.00103 7.54002 2.09414L4.50464 4.81854L3.91246 4.28967C3.9106 4.28781 3.90874 4.28595 3.90874 4.28408C3.8957 4.27105 3.88267 4.25988 3.86777 4.2487L1.45809 2.09228C1.35381 1.99917 1.19552 2.00848 1.10241 2.11276C1.0093 2.21704 1.01861 2.37533 1.12289 2.46844L3.35008 4.45913L1.1322 6.53548C1.03165 6.63045 1.02606 6.78874 1.12103 6.89116C1.17131 6.9433 1.23835 6.97124 1.30539 6.97124C1.36684 6.97124 1.42829 6.94889 1.47671 6.9042L3.72811 4.79805L4.33891 5.34368C4.38732 5.38651 4.44691 5.40699 4.50651 5.40699C4.5661 5.40699 4.62755 5.38464 4.6741 5.34181L5.30166 4.77943L7.54002 6.90606C7.58844 6.95261 7.65176 6.97496 7.71321 6.97496C7.78025 6.97496 7.84542 6.94889 7.8957 6.89675C7.99067 6.79619 7.98695 6.63604 7.88639 6.54107L5.67596 4.44237Z" fill="#563BC2"/>
</g>
<defs>
<clipPath id="clip0">
<rect width="9" height="9" fill="white"/>
</clipPath>
</defs>
</svg>
