<svg width="7" height="7" viewBox="0 0 7 7" fill="none" xmlns="http://www.w3.org/2000/svg">
<path d="M5.97488 4.52512C5.59367 4.14392 5.13993 3.86172 4.64487 3.69089C5.17509 3.3257 5.52344 2.71452 5.52344 2.02344C5.52344 0.907717 4.61572 0 3.5 0C2.38428 0 1.47656 0.907717 1.47656 2.02344C1.47656 2.71452 1.82491 3.3257 2.35514 3.69089C1.86009 3.86172 1.40634 4.14392 1.02513 4.52512C0.364068 5.18619 0 6.06512 0 7H0.546875C0.546875 5.37164 1.87164 4.04688 3.5 4.04688C5.12836 4.04688 6.45312 5.37164 6.45312 7H7C7 6.06512 6.63593 5.18619 5.97488 4.52512ZM3.5 3.5C2.68583 3.5 2.02344 2.83763 2.02344 2.02344C2.02344 1.20925 2.68583 0.546875 3.5 0.546875C4.31417 0.546875 4.97656 1.20925 4.97656 2.02344C4.97656 2.83763 4.31417 3.5 3.5 3.5Z" fill="#563BC2"/>
</svg>
