<svg width="8" height="8" viewBox="0 0 8 8" fill="none" xmlns="http://www.w3.org/2000/svg">
<path d="M7.12189 3.21948H3.31701C3.20924 3.21948 3.12189 3.30684 3.12189 3.4146C3.12189 3.52237 3.20924 3.60973 3.31701 3.60973H7.12189C7.22965 3.60973 7.31701 3.52237 7.31701 3.4146C7.31701 3.30684 7.22965 3.21948 7.12189 3.21948Z" fill="#563BC2"/>
<path d="M3.31701 4.78062H5.36578C5.47355 4.78062 5.56091 4.69327 5.56091 4.5855C5.56091 4.47774 5.47355 4.39038 5.36578 4.39038H3.31701C3.20924 4.39038 3.12189 4.47774 3.12189 4.5855C3.12189 4.69327 3.20924 4.78062 3.31701 4.78062Z" fill="#563BC2"/>
<path d="M3.31701 0.68297H7.12189C7.22965 0.68297 7.31701 0.595614 7.31701 0.487847C7.31701 0.380081 7.22965 0.292725 7.12189 0.292725H3.31701C3.20924 0.292725 3.12189 0.380081 3.12189 0.487847C3.12189 0.595614 3.20924 0.68297 3.31701 0.68297Z" fill="#563BC2"/>
<path d="M3.31701 1.85362H5.36578C5.47355 1.85362 5.56091 1.76627 5.56091 1.6585C5.56091 1.55073 5.47355 1.46338 5.36578 1.46338H3.31701C3.20924 1.46338 3.12189 1.55073 3.12189 1.6585C3.12189 1.76627 3.20924 1.85362 3.31701 1.85362Z" fill="#563BC2"/>
<path d="M7.12189 6.14648H3.31701C3.20924 6.14648 3.12189 6.23384 3.12189 6.34161C3.12189 6.44937 3.20924 6.53673 3.31701 6.53673H7.12189C7.22965 6.53673 7.31701 6.44937 7.31701 6.34161C7.31701 6.23384 7.22965 6.14648 7.12189 6.14648Z" fill="#563BC2"/>
<path d="M5.36578 7.31714H3.31701C3.20924 7.31714 3.12189 7.40449 3.12189 7.51226C3.12189 7.62003 3.20924 7.70738 3.31701 7.70738H5.36578C5.47355 7.70738 5.56091 7.62003 5.56091 7.51226C5.56091 7.40449 5.47355 7.31714 5.36578 7.31714Z" fill="#563BC2"/>
<circle cx="1" cy="4" r="0.75" stroke="#563BC2" stroke-width="0.5"/>
<circle cx="1" cy="1" r="0.75" stroke="#563BC2" stroke-width="0.5"/>
<circle cx="1" cy="7" r="0.75" stroke="#563BC2" stroke-width="0.5"/>
</svg>
