<svg width="9" height="9" viewBox="0 0 9 9" fill="none" xmlns="http://www.w3.org/2000/svg">
<path d="M8.23713 0.942959C7.25072 -0.0221863 5.6738 -0.0219764 4.68764 0.943436L0.551627 5.07947C-0.196248 5.84497 -0.181955 7.0718 0.583551 7.81967C1.33646 8.55525 2.53892 8.55525 3.29183 7.81967L7.03706 4.07444C7.52394 3.58756 7.52394 2.79814 7.03706 2.31126C6.55017 1.82437 5.76076 1.82437 5.27387 2.31126L1.69147 5.89364C1.56652 6.02301 1.57011 6.22918 1.69949 6.35413C1.8257 6.47603 2.02577 6.47603 2.15198 6.35413L5.73437 2.77175C5.97192 2.54417 6.34899 2.55228 6.57654 2.78984C6.79723 3.02022 6.79723 3.38357 6.57654 3.61395L2.83133 7.35916C2.32539 7.85791 1.51089 7.85207 1.01214 7.34612C0.518423 6.84529 0.518423 6.0408 1.01214 5.53996L5.14816 1.40393C5.88489 0.666933 7.07955 0.666723 7.81655 1.40343C8.55355 2.14014 8.55376 3.33483 7.81705 4.07183L3.68101 8.20786C3.5444 8.32485 3.52849 8.53045 3.64548 8.66706C3.76248 8.80367 3.96807 8.81958 4.10468 8.70259C4.11742 8.69167 4.12929 8.6798 4.14021 8.66706L8.27625 4.53102C9.25626 3.52941 9.23876 1.92297 8.23713 0.942959Z" fill="#563BC2"/>
</svg>
