<svg width="7" height="9" viewBox="0 0 7 9" fill="none" xmlns="http://www.w3.org/2000/svg">
<path d="M5.39328 0H1.60661C1.2442 0 0.95166 0.293856 0.95166 0.655601V8.34506C0.95166 8.70647 1.2442 9 1.60661 9H5.39328C5.75503 9 6.04823 8.70647 6.04823 8.34506V0.655601C6.04823 0.293856 5.75503 0 5.39328 0ZM2.56557 0.398149H4.43497C4.4822 0.398149 4.52057 0.468661 4.52057 0.5559C4.52057 0.643138 4.4822 0.713979 4.43497 0.713979H2.56557C2.51802 0.713979 2.4803 0.643138 2.4803 0.5559C2.4803 0.468661 2.51802 0.398149 2.56557 0.398149ZM3.50027 8.35293C3.26971 8.35293 3.08212 8.16533 3.08212 7.93444C3.08212 7.70356 3.26971 7.51662 3.50027 7.51662C3.73018 7.51662 3.91777 7.70356 3.91777 7.93444C3.91777 8.16533 3.73018 8.35293 3.50027 8.35293ZM5.55759 6.92005H1.44262V1.10622H5.55759V6.92005Z" fill="#563BC2"/>
</svg>
