<svg width="7" height="7" viewBox="0 0 7 7" fill="none" xmlns="http://www.w3.org/2000/svg">
<path d="M6.32626 0H0.673308C0.360877 0 0.108337 0.250544 0.108337 0.556985V6.44376C0.108337 6.7507 0.360877 7 0.673308 7H6.32626C6.63769 7 6.89173 6.75095 6.89173 6.44376V0.556985C6.89173 0.250544 6.63769 0 6.32626 0ZM2.1616 6.58126H1.01144C0.736693 6.58126 0.513849 6.36241 0.513849 6.0914V4.94699H2.1616V6.58126ZM2.1616 4.37378H0.513849V2.72054H2.1616V4.37378ZM2.1616 2.14734H0.513849V0.909593C0.513849 0.639585 0.736942 0.419735 1.01144 0.419735H2.16135V2.14734H2.1616ZM4.38754 6.58126H2.73455V4.94699H4.38754V6.58126ZM4.38754 4.37378H2.73455V2.72054H4.38754V4.37378ZM4.38754 2.14734H2.73455V0.419735H4.38754V2.14734ZM6.48547 6.0914C6.48547 6.36241 6.26213 6.58126 5.98838 6.58126H4.961V4.94699H6.48547V6.0914ZM6.48547 4.37378H4.961V2.72054H6.48547V4.37378ZM6.48547 2.14734H4.961V0.419735H5.98838C6.26238 0.419735 6.48547 0.639585 6.48547 0.909593V2.14734Z" fill="#563BC2"/>
</svg>
