<svg width="8" height="8" viewBox="0 0 8 8" fill="none" xmlns="http://www.w3.org/2000/svg">
<path d="M2.90182 2.86432L2.52686 3.43219L2.23422 2.98895C1.7373 2.23645 0.902053 1.78717 3.98717e-07 1.78717L4.26058e-07 1.16168C1.11299 1.16168 2.14347 1.71594 2.75654 2.64441L2.90182 2.86432ZM6.52475 8L8 6.52557L6.52475 5.05115L6.08218 5.49347L6.80194 6.21283L6.55352 6.21283C5.6514 6.21283 4.81616 5.76355 4.3193 5.01105L4.0266 4.56781L3.65169 5.13562L3.79691 5.35559C4.40999 6.284 5.44047 6.83832 6.55352 6.83832L6.80194 6.83832L6.08218 7.55768L6.52475 8ZM2.7566 5.35559L4.3193 2.98895C4.81616 2.23645 5.6514 1.78717 6.55352 1.78717L6.80195 1.78717L6.08218 2.50653L6.52475 2.94885L8 1.47443L6.52475 -6.44851e-08L6.08218 0.442322L6.80195 1.16168L6.55352 1.16168C5.44047 1.16168 4.40999 1.71594 3.79691 2.64441L2.23422 5.01105C1.7373 5.76355 0.902053 6.21283 2.05266e-07 6.21283L1.77925e-07 6.83832C1.11299 6.83832 2.14353 6.28406 2.7566 5.35559Z" fill="#563BC2"/>
</svg>
