<svg width="10" height="10" viewBox="0 0 10 10" fill="none" xmlns="http://www.w3.org/2000/svg">
<path d="M3.63083 3.5804L3.16238 4.29024L2.79678 3.73619C2.17598 2.79556 1.13251 2.23396 0.00556841 2.23396L0.00556844 1.4521C1.39603 1.4521 2.68341 2.14493 3.44932 3.30551L3.63083 3.5804ZM8.15697 10L10 8.15697L8.15697 6.31393L7.60406 6.86684L8.50326 7.76604L8.1929 7.76604C7.06589 7.76604 6.02241 7.20444 5.40169 6.26381L5.03601 5.70976L4.56764 6.41952L4.74907 6.69449C5.51498 7.855 6.80237 8.5479 8.1929 8.5479L8.50326 8.5479L7.60406 9.4471L8.15697 10ZM3.4494 6.69449L5.40169 3.73619C6.02241 2.79556 7.06589 2.23396 8.1929 2.23396L8.50327 2.23396L7.60406 3.13316L8.15697 3.68607L10 1.84303L8.15697 -8.05615e-08L7.60406 0.552902L8.50327 1.4521L8.1929 1.4521C6.80237 1.4521 5.51498 2.14493 4.74907 3.30551L2.79678 6.26381C2.17598 7.20444 1.13251 7.76604 0.00556816 7.76604L0.00556813 8.5479C1.39603 8.5479 2.68349 7.85507 3.4494 6.69449Z" fill="#563BC2"/>
</svg>
