<svg width="9" height="9" viewBox="0 0 9 9" fill="none" xmlns="http://www.w3.org/2000/svg">
<path d="M4.5 0C2.01855 0 0 2.01855 0 4.5C0 6.98145 2.01855 9 4.5 9C6.98145 9 9 6.9811 9 4.5C9 2.0189 6.98145 0 4.5 0ZM4.5 8.30287C2.40337 8.30287 0.697131 6.59698 0.697131 4.5C0.697131 2.40302 2.40337 0.697131 4.5 0.697131C6.59663 0.697131 8.30287 2.40302 8.30287 4.5C8.30287 6.59698 6.59698 8.30287 4.5 8.30287Z" fill="#563BC2"/>
<path d="M6.24245 4.12003H4.84819V2.72577C4.84819 2.53336 4.69238 2.3772 4.49961 2.3772C4.30685 2.3772 4.15104 2.53336 4.15104 2.72577V4.12003H2.75678C2.56402 4.12003 2.4082 4.2762 2.4082 4.46861C2.4082 4.66102 2.56402 4.81718 2.75678 4.81718H4.15104V6.21144C4.15104 6.40385 4.30685 6.56002 4.49961 6.56002C4.69238 6.56002 4.84819 6.40385 4.84819 6.21144V4.81718H6.24245C6.43521 4.81718 6.59102 4.66102 6.59102 4.46861C6.59102 4.2762 6.43521 4.12003 6.24245 4.12003Z" fill="#563BC2"/>
</svg>
