<svg width="8" height="8" viewBox="0 0 8 8" fill="none" xmlns="http://www.w3.org/2000/svg">
<path d="M6.03125 3.59375C6.20384 3.59375 6.34375 3.45384 6.34375 3.28125C6.34375 3.10866 6.20384 2.96875 6.03125 2.96875C5.85866 2.96875 5.71875 3.10866 5.71875 3.28125C5.71875 3.45384 5.85866 3.59375 6.03125 3.59375Z" fill="#563BC2"/>
<path d="M6.75 0.625H6.34375V0.3125C6.34375 0.139906 6.20384 0 6.03125 0C5.85866 0 5.71875 0.139906 5.71875 0.3125V0.625H4.29688V0.3125C4.29688 0.139906 4.15697 0 3.98438 0C3.81178 0 3.67188 0.139906 3.67188 0.3125V0.625H2.26562V0.3125C2.26562 0.139906 2.12572 0 1.95312 0C1.78053 0 1.64062 0.139906 1.64062 0.3125V0.625H1.25C0.56075 0.625 0 1.18575 0 1.875V6.75C0 7.43925 0.56075 8 1.25 8H3.64062C3.81322 8 3.95312 7.86009 3.95312 7.6875C3.95312 7.51491 3.81322 7.375 3.64062 7.375H1.25C0.905375 7.375 0.625 7.09462 0.625 6.75V1.875C0.625 1.53038 0.905375 1.25 1.25 1.25H1.64062V1.5625C1.64062 1.73509 1.78053 1.875 1.95312 1.875C2.12572 1.875 2.26562 1.73509 2.26562 1.5625V1.25H3.67188V1.5625C3.67188 1.73509 3.81178 1.875 3.98438 1.875C4.15697 1.875 4.29688 1.73509 4.29688 1.5625V1.25H5.71875V1.5625C5.71875 1.73509 5.85866 1.875 6.03125 1.875C6.20384 1.875 6.34375 1.73509 6.34375 1.5625V1.25H6.75C7.09462 1.25 7.375 1.53038 7.375 1.875V3.65625C7.375 3.82884 7.51491 3.96875 7.6875 3.96875C7.86009 3.96875 8 3.82884 8 3.65625V1.875C8 1.18575 7.43925 0.625 6.75 0.625Z" fill="#563BC2"/>
<path d="M6.10938 4.21875C5.06687 4.21875 4.21875 5.06687 4.21875 6.10938C4.21875 7.15188 5.06687 8 6.10938 8C7.15188 8 8 7.15188 8 6.10938C8 5.06687 7.15188 4.21875 6.10938 4.21875ZM6.10938 7.375C5.41152 7.375 4.84375 6.80725 4.84375 6.10938C4.84375 5.4115 5.41152 4.84375 6.10938 4.84375C6.80723 4.84375 7.375 5.4115 7.375 6.10938C7.375 6.80725 6.80723 7.375 6.10938 7.375Z" fill="#563BC2"/>
<path d="M6.5625 5.79688H6.42188V5.46875C6.42188 5.29616 6.28197 5.15625 6.10938 5.15625C5.93678 5.15625 5.79688 5.29616 5.79688 5.46875V6.10938C5.79688 6.28197 5.93678 6.42188 6.10938 6.42188H6.5625C6.73509 6.42188 6.875 6.28197 6.875 6.10938C6.875 5.93678 6.73509 5.79688 6.5625 5.79688Z" fill="#563BC2"/>
<path d="M4.67188 3.59375C4.84446 3.59375 4.98438 3.45384 4.98438 3.28125C4.98438 3.10866 4.84446 2.96875 4.67188 2.96875C4.49929 2.96875 4.35938 3.10866 4.35938 3.28125C4.35938 3.45384 4.49929 3.59375 4.67188 3.59375Z" fill="#563BC2"/>
<path d="M3.3125 4.95312C3.48509 4.95312 3.625 4.81321 3.625 4.64062C3.625 4.46804 3.48509 4.32812 3.3125 4.32812C3.13991 4.32812 3 4.46804 3 4.64062C3 4.81321 3.13991 4.95312 3.3125 4.95312Z" fill="#563BC2"/>
<path d="M1.95312 3.59375C2.12571 3.59375 2.26562 3.45384 2.26562 3.28125C2.26562 3.10866 2.12571 2.96875 1.95312 2.96875C1.78054 2.96875 1.64062 3.10866 1.64062 3.28125C1.64062 3.45384 1.78054 3.59375 1.95312 3.59375Z" fill="#563BC2"/>
<path d="M1.95312 4.95312C2.12571 4.95312 2.26562 4.81321 2.26562 4.64062C2.26562 4.46804 2.12571 4.32812 1.95312 4.32812C1.78054 4.32812 1.64062 4.46804 1.64062 4.64062C1.64062 4.81321 1.78054 4.95312 1.95312 4.95312Z" fill="#563BC2"/>
<path d="M1.95312 6.3125C2.12571 6.3125 2.26562 6.17259 2.26562 6C2.26562 5.82741 2.12571 5.6875 1.95312 5.6875C1.78054 5.6875 1.64062 5.82741 1.64062 6C1.64062 6.17259 1.78054 6.3125 1.95312 6.3125Z" fill="#563BC2"/>
<path d="M3.3125 6.3125C3.48509 6.3125 3.625 6.17259 3.625 6C3.625 5.82741 3.48509 5.6875 3.3125 5.6875C3.13991 5.6875 3 5.82741 3 6C3 6.17259 3.13991 6.3125 3.3125 6.3125Z" fill="#563BC2"/>
<path d="M3.3125 3.59375C3.48509 3.59375 3.625 3.45384 3.625 3.28125C3.625 3.10866 3.48509 2.96875 3.3125 2.96875C3.13991 2.96875 3 3.10866 3 3.28125C3 3.45384 3.13991 3.59375 3.3125 3.59375Z" fill="#563BC2"/>
</svg>
