<svg width="10" height="10" viewBox="0 0 10 10" fill="none" xmlns="http://www.w3.org/2000/svg">
<g clip-path="url(#clip0)">
<path d="M4.58322 9.57676C2.05621 9.57676 0 7.52062 0 4.99362C0 2.46661 2.05621 0.4104 4.58322 0.4104C5.46194 0.4104 6.31687 0.660789 7.0556 1.13494C7.20063 1.22832 7.24312 1.42165 7.14974 1.56706C7.05605 1.71247 6.86311 1.75451 6.7177 1.6612C6.08021 1.25159 5.34194 1.03538 4.58322 1.03538C2.40074 1.03538 0.624981 2.81114 0.624981 4.99362C0.624981 7.17601 2.40074 8.95178 4.58322 8.95178C6.76561 8.95178 8.54138 7.17601 8.54138 4.99362C8.54138 4.86316 8.53512 4.734 8.52306 4.60697C8.50643 4.43486 8.63224 4.28235 8.80389 4.26572C8.97639 4.24985 9.12844 4.37489 9.14515 4.54655C9.15926 4.69364 9.16636 4.84279 9.16636 4.99362C9.16636 7.52062 7.11022 9.57676 4.58322 9.57676Z" fill="#563BC2"/>
<path d="M5.10403 6.03544C5.02407 6.03544 4.94404 6.005 4.88324 5.94381L3.0083 4.06887C2.88623 3.94673 2.88623 3.74883 3.0083 3.62676C3.13036 3.50469 3.32826 3.50469 3.45033 3.62676L5.10448 5.28091L9.46638 0.918942C9.58852 0.796876 9.78642 0.796876 9.90849 0.918942C10.0306 1.04101 10.0306 1.23891 9.90849 1.36098L5.32527 5.94419C5.26401 6.005 5.18406 6.03544 5.10403 6.03544Z" fill="#563BC2"/>
</g>
<defs>
<clipPath id="clip0">
<rect width="10" height="10" fill="white"/>
</clipPath>
</defs>
</svg>
