<svg width="141" height="43" viewBox="0 0 141 43" fill="none" xmlns="http://www.w3.org/2000/svg">
<g clip-path="url(#clip0)">
<path fill-rule="evenodd" clip-rule="evenodd" d="M28.7025 0L14.3513 14.3338H28.7025V43L43.0537 28.7012V0H28.7025Z" fill="#F26126"/>
<path fill-rule="evenodd" clip-rule="evenodd" d="M14.3512 43L28.7024 28.6667H14.3512V0L0 14.2992V43H14.3512Z" fill="#333042"/>
<path fill-rule="evenodd" clip-rule="evenodd" d="M102.395 29.7236C97.3659 29.7236 94.539 26.0414 94.539 21.4901C94.539 17.8358 96.5972 13.2488 102.252 13.2488C105.782 13.2488 108.059 15.4037 108.866 16.4072L113.448 11.8322C110.683 8.53669 106.534 6.44019 101.893 6.44019C93.571 6.44019 87.0044 12.5922 87.0044 21.4901C87.0044 29.8017 93.571 36.54 101.893 36.54C106.876 36.54 111.292 34.1235 114.035 30.4014L109.424 25.7958C107.966 28.0784 105.585 29.7236 102.395 29.7236ZM129.874 29.7412H124.155V24.0142H129.874C131.651 24.0142 133.45 24.7137 133.45 26.8697C133.45 29.0267 131.651 29.7412 129.874 29.7412ZM130.591 17.9072H124.155V13.6164H138.489V7.16608H116.62V35.8327C116.62 35.8327 127.368 35.8322 130.95 35.8322C136.695 35.8322 141.001 32.956 141.001 26.8697C141.001 20.773 136.695 17.9072 130.591 17.9072ZM57.4048 35.8327H64.9395V13.6164H76.4202V35.8327H83.9548V7.16608H57.4048V35.8327Z" fill="#333042"/>
</g>
<defs>
<clipPath id="clip0">
<rect width="141" height="43" fill="white"/>
</clipPath>
</defs>
</svg>
