<svg width="94" height="29" viewBox="0 0 94 29" fill="none" xmlns="http://www.w3.org/2000/svg">
<g clip-path="url(#clip0)">
<path fill-rule="evenodd" clip-rule="evenodd" d="M19.135 0L9.5675 9.66696H19.135V29L28.7024 19.3566V0H19.135Z" fill="#F26126"/>
<path fill-rule="evenodd" clip-rule="evenodd" d="M9.56747 29L19.1349 19.3333H9.56747V0L0 9.64364V29H9.56747Z" fill="white"/>
<path fill-rule="evenodd" clip-rule="evenodd" d="M68.2631 20.0461C64.9107 20.0461 63.026 17.5628 63.026 14.4933C63.026 12.0288 64.3982 8.93524 68.1682 8.93524C70.5211 8.93524 72.0393 10.3886 72.5773 11.0653L75.6318 7.97984C73.7889 5.75731 71.023 4.34338 67.929 4.34338C62.3807 4.34338 58.003 8.49241 58.003 14.4933C58.003 20.0988 62.3807 24.6432 67.929 24.6432C71.2507 24.6432 74.1945 23.0135 76.0233 20.5033L72.9497 17.3972C71.9771 18.9366 70.39 20.0461 68.2631 20.0461ZM86.5825 20.058H82.7698V16.1956H86.5825C87.7676 16.1956 88.9669 16.6674 88.9669 18.1214C88.9669 19.5762 87.7676 20.058 86.5825 20.058ZM87.0609 12.0769H82.7698V9.18315H92.3262V4.83294H77.7467V24.1663C77.7467 24.1663 84.9118 24.1659 87.3 24.1659C91.13 24.1659 94.0004 22.2262 94.0004 18.1214C94.0004 14.0097 91.13 12.0769 87.0609 12.0769ZM38.2699 24.1663H43.293V9.18315H50.9469V24.1663H55.9699V4.83294H38.2699V24.1663Z" fill="white"/>
</g>
<defs>
<clipPath id="clip0">
<rect width="94" height="29" fill="white"/>
</clipPath>
</defs>
</svg>
