<svg width="10" height="11" viewBox="0 0 10 11" fill="none" xmlns="http://www.w3.org/2000/svg">
<g clip-path="url(#clip0)">
<path d="M4.16711 0.6427H5.83841V0.92392H6.44197V0.603333C6.44205 0.292206 6.18906 0.0390625 5.87808 0.0390625H4.12744C3.81647 0.0390625 3.56348 0.292206 3.56348 0.603333V0.92392H4.16711V0.6427Z" fill="#292929"/>
<path d="M7.83635 3.31543H2.17015C2.01489 3.31543 1.89267 3.44788 1.90518 3.60268L2.37889 9.46022C2.40529 9.78722 2.67804 10.0391 3.00572 10.0391H7.0007C7.32838 10.0391 7.60113 9.78722 7.62753 9.46014L8.10124 3.60268C8.11383 3.44788 7.9916 3.31543 7.83635 3.31543ZM3.54214 9.41429C3.53581 9.41467 3.52948 9.4149 3.52322 9.4149C3.36499 9.4149 3.23216 9.29169 3.22232 9.13162L2.92546 4.32289C2.91523 4.15649 3.04181 4.01329 3.20813 4.00307C3.37391 3.993 3.51773 4.11926 3.52795 4.28574L3.82473 9.09447C3.83503 9.26086 3.70846 9.40399 3.54214 9.41429ZM5.30842 9.11308C5.30842 9.27971 5.17331 9.41483 5.0066 9.41483C4.8399 9.41483 4.70479 9.27971 4.70479 9.11308V4.30428C4.70479 4.13757 4.8399 4.00246 5.0066 4.00246C5.17323 4.00246 5.30842 4.13757 5.30842 4.30428V9.11308ZM7.08104 4.32205L6.7976 9.13078C6.78822 9.29115 6.65516 9.41483 6.49662 9.41483C6.49067 9.41483 6.48465 9.41467 6.47862 9.41437C6.31222 9.40453 6.18527 9.2617 6.19511 9.09531L6.47847 4.2865C6.48823 4.1201 6.6306 3.99315 6.79745 4.00299C6.96385 4.01276 7.0908 4.15565 7.08104 4.32205Z" fill="#292929"/>
<path d="M8.87984 2.38406L8.68163 1.78989C8.62937 1.63326 8.48273 1.52759 8.31756 1.52759H1.68845C1.52335 1.52759 1.37664 1.63326 1.32445 1.78989L1.12624 2.38406C1.08802 2.49866 1.13776 2.61554 1.23061 2.67383C1.26845 2.69756 1.31324 2.71182 1.36245 2.71182H8.64364C8.69285 2.71182 8.73771 2.69756 8.77547 2.67375C8.86832 2.61546 8.91807 2.49858 8.87984 2.38406Z" fill="#292929"/>
</g>
<defs>
<clipPath id="clip0">
<rect width="10" height="10" fill="white" transform="translate(0 0.0390625)"/>
</clipPath>
</defs>
</svg>
