<svg width="46" height="46" viewBox="0 0 46 46" fill="none" xmlns="http://www.w3.org/2000/svg">
<path d="M23 0C10.317 0 0 10.318 0 23C0 35.682 10.317 46 23 46C35.683 46 46 35.682 46 23C46 10.318 35.683 0 23 0ZM32.1435 23.8058L18.7269 32.4308C18.5696 32.5328 18.3881 32.5834 18.2084 32.5834C18.0511 32.5834 17.892 32.544 17.7498 32.4664C17.4409 32.2979 17.25 31.9759 17.25 31.625V14.375C17.25 14.0241 17.4409 13.7021 17.7498 13.5336C18.053 13.367 18.433 13.3773 18.7269 13.5692L32.1435 22.1942C32.4168 22.3701 32.5834 22.6743 32.5834 23C32.5834 23.3257 32.4168 23.6298 32.1435 23.8058Z" fill="#563BC2"/>
</svg>
