<svg width="168" height="19" viewBox="0 0 168 19" fill="none" xmlns="http://www.w3.org/2000/svg">
<circle cx="6.1875" cy="12.2634" r="5.6875" stroke="#BA1417"/>
<path d="M6.0045 15.0554C5.6265 15.0554 5.28817 14.9551 4.9895 14.7544C4.6955 14.5538 4.4645 14.2668 4.2965 13.8934C4.13317 13.5154 4.0515 13.0721 4.0515 12.5634C4.0515 12.0548 4.13317 11.6138 4.2965 11.2404C4.4645 10.8624 4.6955 10.5731 4.9895 10.3724C5.28817 10.1718 5.6265 10.0714 6.0045 10.0714C6.3825 10.0714 6.7185 10.1718 7.0125 10.3724C7.31117 10.5731 7.5445 10.8624 7.7125 11.2404C7.8805 11.6138 7.9645 12.0548 7.9645 12.5634C7.9645 13.0721 7.8805 13.5154 7.7125 13.8934C7.5445 14.2668 7.31117 14.5538 7.0125 14.7544C6.7185 14.9551 6.3825 15.0554 6.0045 15.0554ZM6.0045 14.5934C6.28917 14.5934 6.53883 14.5141 6.7535 14.3554C6.97283 14.1968 7.14317 13.9658 7.2645 13.6624C7.38583 13.3591 7.4465 12.9928 7.4465 12.5634C7.4465 12.1341 7.38583 11.7678 7.2645 11.4644C7.14317 11.1611 6.97283 10.9301 6.7535 10.7714C6.53883 10.6128 6.28917 10.5334 6.0045 10.5334C5.71983 10.5334 5.46783 10.6128 5.2485 10.7714C5.03383 10.9301 4.86583 11.1611 4.7445 11.4644C4.62317 11.7678 4.5625 12.1341 4.5625 12.5634C4.5625 12.9928 4.62317 13.3591 4.7445 13.6624C4.86583 13.9658 5.03383 14.1968 5.2485 14.3554C5.46783 14.5141 5.71983 14.5934 6.0045 14.5934Z" fill="#483D3D"/>
<circle cx="21.75" cy="12.2634" r="5.6875" stroke="#CD0800"/>
<path d="M21.972 10.1134V15.0134H21.468V10.5614H20.313V10.1134H21.972Z" fill="#483D3D"/>
<circle cx="37.3125" cy="12.2634" r="5.6875" stroke="#F40200"/>
<path d="M39.5225 14.5654V15.0134H36.0855V14.6564L38.1225 12.6614C38.3792 12.4094 38.5518 12.1924 38.6405 12.0104C38.7338 11.8238 38.7805 11.6371 38.7805 11.4504C38.7805 11.1611 38.6802 10.9371 38.4795 10.7784C38.2835 10.6151 38.0012 10.5334 37.6325 10.5334C37.0585 10.5334 36.6128 10.7154 36.2955 11.0794L35.9385 10.7714C36.1298 10.5474 36.3725 10.3748 36.6665 10.2534C36.9652 10.1321 37.3012 10.0714 37.6745 10.0714C38.1738 10.0714 38.5682 10.1904 38.8575 10.4284C39.1515 10.6618 39.2985 10.9838 39.2985 11.3944C39.2985 11.6464 39.2425 11.8891 39.1305 12.1224C39.0185 12.3558 38.8062 12.6241 38.4935 12.9274L36.8275 14.5654H39.5225Z" fill="#483D3D"/>
<circle cx="52.875" cy="12.2634" r="5.6875" stroke="#FF4A05"/>
<path d="M53.405 12.2134C53.9183 12.2414 54.308 12.3814 54.574 12.6334C54.8447 12.8808 54.98 13.2051 54.98 13.6064C54.98 13.8864 54.9123 14.1361 54.777 14.3554C54.6417 14.5701 54.441 14.7404 54.175 14.8664C53.909 14.9924 53.5847 15.0554 53.202 15.0554C52.8473 15.0554 52.5113 14.9994 52.194 14.8874C51.8813 14.7708 51.6293 14.6168 51.438 14.4254L51.683 14.0264C51.8463 14.1944 52.0633 14.3321 52.334 14.4394C52.6047 14.5421 52.894 14.5934 53.202 14.5934C53.6033 14.5934 53.9137 14.5071 54.133 14.3344C54.3523 14.1571 54.462 13.9144 54.462 13.6064C54.462 13.3031 54.3523 13.0651 54.133 12.8924C53.9137 12.7198 53.5823 12.6334 53.139 12.6334H52.789V12.2624L54.147 10.5614H51.641V10.1134H54.791V10.4704L53.405 12.2134Z" fill="#483D3D"/>
<circle cx="68.4375" cy="12.2634" r="5.6875" stroke="#FF7500"/>
<path d="M70.4665 13.7254H69.4865V15.0134H68.9825V13.7254H66.2175V13.3614L68.8145 10.1134H69.3745L66.8685 13.2774H68.9965V12.1434H69.4865V13.2774H70.4665V13.7254Z" fill="#483D3D"/>
<circle cx="84" cy="12.2634" r="5.6875" stroke="#FFA400"/>
<path d="M83.152 12.1224C83.8613 12.1224 84.377 12.2508 84.699 12.5074C85.0257 12.7594 85.189 13.1141 85.189 13.5714C85.189 13.8561 85.1213 14.1104 84.986 14.3344C84.8553 14.5584 84.657 14.7358 84.391 14.8664C84.125 14.9924 83.7983 15.0554 83.411 15.0554C83.061 15.0554 82.7273 14.9994 82.41 14.8874C82.0973 14.7708 81.8453 14.6168 81.654 14.4254L81.899 14.0264C82.0623 14.1944 82.277 14.3321 82.543 14.4394C82.809 14.5421 83.096 14.5934 83.404 14.5934C83.81 14.5934 84.1227 14.5024 84.342 14.3204C84.566 14.1384 84.678 13.8958 84.678 13.5924C84.678 13.2564 84.552 13.0021 84.3 12.8294C84.0527 12.6568 83.6327 12.5704 83.04 12.5704H81.997L82.249 10.1134H84.93V10.5614H82.69L82.522 12.1224H83.152Z" fill="#483D3D"/>
<circle cx="99.5625" cy="12.2634" r="5.6875" stroke="#E7F600"/>
<path d="M99.4565 12.0804C99.7785 12.0804 100.063 12.1411 100.311 12.2624C100.563 12.3838 100.759 12.5564 100.899 12.7804C101.039 12.9998 101.109 13.2564 101.109 13.5504C101.109 13.8491 101.036 14.1128 100.892 14.3414C100.747 14.5701 100.546 14.7474 100.29 14.8734C100.038 14.9948 99.7528 15.0554 99.4355 15.0554C98.7868 15.0554 98.2898 14.8431 97.9445 14.4184C97.5992 13.9891 97.4265 13.3848 97.4265 12.6054C97.4265 12.0594 97.5198 11.5974 97.7065 11.2194C97.8932 10.8414 98.1545 10.5568 98.4905 10.3654C98.8265 10.1694 99.2185 10.0714 99.6665 10.0714C100.152 10.0714 100.539 10.1601 100.829 10.3374L100.626 10.7434C100.392 10.5894 100.075 10.5124 99.6735 10.5124C99.1322 10.5124 98.7075 10.6851 98.3995 11.0304C98.0915 11.3711 97.9375 11.8681 97.9375 12.5214C97.9375 12.6381 97.9445 12.7711 97.9585 12.9204C98.0798 12.6544 98.2735 12.4491 98.5395 12.3044C98.8055 12.1551 99.1112 12.0804 99.4565 12.0804ZM99.4145 14.6284C99.7692 14.6284 100.056 14.5328 100.276 14.3414C100.5 14.1454 100.612 13.8864 100.612 13.5644C100.612 13.2424 100.5 12.9858 100.276 12.7944C100.056 12.6031 99.7575 12.5074 99.3795 12.5074C99.1322 12.5074 98.9128 12.5541 98.7215 12.6474C98.5348 12.7408 98.3878 12.8691 98.2805 13.0324C98.1732 13.1958 98.1195 13.3778 98.1195 13.5784C98.1195 13.7651 98.1685 13.9378 98.2665 14.0964C98.3692 14.2551 98.5185 14.3834 98.7145 14.4814C98.9105 14.5794 99.1438 14.6284 99.4145 14.6284Z" fill="#483D3D"/>
<circle cx="115.125" cy="12.2634" r="5.6875" stroke="#00E355"/>
<path d="M116.447 10.1134V10.4704L114.396 15.0134H113.85L115.866 10.5614H113.346V11.4784H112.849V10.1134H116.447Z" fill="#483D3D"/>
<circle cx="130.688" cy="12.2634" r="5.6875" stroke="#00D086"/>
<path d="M131.359 12.4444C131.667 12.5471 131.902 12.7011 132.066 12.9064C132.234 13.1118 132.318 13.3591 132.318 13.6484C132.318 13.9331 132.241 14.1828 132.087 14.3974C131.933 14.6074 131.711 14.7708 131.422 14.8874C131.137 14.9994 130.801 15.0554 130.414 15.0554C129.826 15.0554 129.364 14.9294 129.028 14.6774C128.692 14.4254 128.524 14.0824 128.524 13.6484C128.524 13.3544 128.603 13.1071 128.762 12.9064C128.925 12.7011 129.161 12.5471 129.469 12.4444C129.217 12.3464 129.025 12.2064 128.895 12.0244C128.764 11.8378 128.699 11.6184 128.699 11.3664C128.699 10.9698 128.853 10.6548 129.161 10.4214C129.473 10.1881 129.891 10.0714 130.414 10.0714C130.759 10.0714 131.06 10.1251 131.317 10.2324C131.578 10.3351 131.781 10.4844 131.926 10.6804C132.07 10.8764 132.142 11.1051 132.142 11.3664C132.142 11.6184 132.075 11.8378 131.94 12.0244C131.804 12.2064 131.611 12.3464 131.359 12.4444ZM129.203 11.3804C129.203 11.6511 129.31 11.8658 129.525 12.0244C129.739 12.1831 130.036 12.2624 130.414 12.2624C130.792 12.2624 131.088 12.1831 131.303 12.0244C131.522 11.8658 131.632 11.6534 131.632 11.3874C131.632 11.1121 131.52 10.8951 131.296 10.7364C131.076 10.5778 130.782 10.4984 130.414 10.4984C130.04 10.4984 129.744 10.5778 129.525 10.7364C129.31 10.8951 129.203 11.1098 129.203 11.3804ZM130.414 14.6284C130.848 14.6284 131.186 14.5398 131.429 14.3624C131.676 14.1851 131.8 13.9448 131.8 13.6414C131.8 13.3381 131.676 13.1001 131.429 12.9274C131.186 12.7501 130.848 12.6614 130.414 12.6614C129.984 12.6614 129.646 12.7501 129.399 12.9274C129.156 13.1001 129.035 13.3381 129.035 13.6414C129.035 13.9494 129.156 14.1921 129.399 14.3694C129.641 14.5421 129.98 14.6284 130.414 14.6284Z" fill="#483D3D"/>
<circle cx="146.25" cy="12.2634" r="5.6875" stroke="#00AB23"/>
<path d="M145.64 10.0714C146.289 10.0714 146.786 10.2861 147.131 10.7154C147.476 11.1401 147.649 11.7421 147.649 12.5214C147.649 13.0674 147.556 13.5294 147.369 13.9074C147.182 14.2854 146.921 14.5724 146.585 14.7684C146.249 14.9598 145.857 15.0554 145.409 15.0554C144.924 15.0554 144.536 14.9668 144.247 14.7894L144.45 14.3834C144.683 14.5374 145.001 14.6144 145.402 14.6144C145.943 14.6144 146.368 14.4441 146.676 14.1034C146.984 13.7581 147.138 13.2588 147.138 12.6054C147.138 12.4841 147.131 12.3511 147.117 12.2064C146.996 12.4724 146.802 12.6801 146.536 12.8294C146.27 12.9741 145.964 13.0464 145.619 13.0464C145.297 13.0464 145.01 12.9858 144.758 12.8644C144.511 12.7431 144.317 12.5728 144.177 12.3534C144.037 12.1294 143.967 11.8704 143.967 11.5764C143.967 11.2778 144.039 11.0141 144.184 10.7854C144.329 10.5568 144.527 10.3818 144.779 10.2604C145.036 10.1344 145.323 10.0714 145.64 10.0714ZM145.696 12.6194C145.943 12.6194 146.16 12.5728 146.347 12.4794C146.538 12.3861 146.688 12.2578 146.795 12.0944C146.902 11.9311 146.956 11.7491 146.956 11.5484C146.956 11.3618 146.905 11.1891 146.802 11.0304C146.704 10.8718 146.557 10.7434 146.361 10.6454C146.165 10.5474 145.932 10.4984 145.661 10.4984C145.306 10.4984 145.017 10.5964 144.793 10.7924C144.574 10.9838 144.464 11.2404 144.464 11.5624C144.464 11.8844 144.574 12.1411 144.793 12.3324C145.017 12.5238 145.318 12.6194 145.696 12.6194Z" fill="#483D3D"/>
<circle cx="161.812" cy="12.2634" r="5.6875" stroke="#008811"/>
<path d="M159.722 10.1V15H159.218V10.548H158.063V10.1H159.722ZM162.846 15.042C162.468 15.042 162.13 14.9417 161.831 14.741C161.537 14.5403 161.306 14.2533 161.138 13.88C160.975 13.502 160.893 13.0587 160.893 12.55C160.893 12.0413 160.975 11.6003 161.138 11.227C161.306 10.849 161.537 10.5597 161.831 10.359C162.13 10.1583 162.468 10.058 162.846 10.058C163.224 10.058 163.56 10.1583 163.854 10.359C164.153 10.5597 164.386 10.849 164.554 11.227C164.722 11.6003 164.806 12.0413 164.806 12.55C164.806 13.0587 164.722 13.502 164.554 13.88C164.386 14.2533 164.153 14.5403 163.854 14.741C163.56 14.9417 163.224 15.042 162.846 15.042ZM162.846 14.58C163.131 14.58 163.381 14.5007 163.595 14.342C163.815 14.1833 163.985 13.9523 164.106 13.649C164.228 13.3457 164.288 12.9793 164.288 12.55C164.288 12.1207 164.228 11.7543 164.106 11.451C163.985 11.1477 163.815 10.9167 163.595 10.758C163.381 10.5993 163.131 10.52 162.846 10.52C162.562 10.52 162.31 10.5993 162.09 10.758C161.876 10.9167 161.708 11.1477 161.586 11.451C161.465 11.7543 161.404 12.1207 161.404 12.55C161.404 12.9793 161.465 13.3457 161.586 13.649C161.708 13.9523 161.876 14.1833 162.09 14.342C162.31 14.5007 162.562 14.58 162.846 14.58Z" fill="#483D3D"/>
</svg>
