<svg width="16" height="16" viewBox="0 0 16 16" fill="none" xmlns="http://www.w3.org/2000/svg">
<path fill-rule="evenodd" clip-rule="evenodd" d="M0 0.5V5C0 5.27614 0.223857 5.5 0.5 5.5C0.776143 5.5 1 5.27614 1 5L1 1.70711L14.2929 15L11 15C10.7239 15 10.5 15.2239 10.5 15.5C10.5 15.7761 10.7239 16 11 16H15.5C15.7761 16 16 15.7761 16 15.5V11C16 10.7239 15.7761 10.5 15.5 10.5C15.2239 10.5 15 10.7239 15 11L15 14.2929L1.70711 1L5 1C5.27614 1 5.5 0.776143 5.5 0.5C5.5 0.223857 5.27614 0 5 0H0.5C0.223858 0 0 0.223858 0 0.5Z" fill="black"/>
</svg>
