<?xml version="1.0"?>
<svg xmlns="http://www.w3.org/2000/svg" xmlns:xlink="http://www.w3.org/1999/xlink" xmlns:svgjs="http://svgjs.com/svgjs" version="1.1" width="512" height="512" x="0" y="0" viewBox="0 0 512 512" style="enable-background:new 0 0 512 512" xml:space="preserve"><g>
<g xmlns="http://www.w3.org/2000/svg">
	<g>
		<g>
			<path d="M264.533,17.067H281.6c4.719,0,8.533-3.814,8.533-8.533S286.319,0,281.6,0h-17.067C259.814,0,256,3.814,256,8.533     S259.814,17.067,264.533,17.067z" fill="#563bc2" data-original="#000000" style=""/>
			<path d="M341.333,213.333c0-4.719-3.814-8.533-8.533-8.533c-4.719,0-8.533,3.814-8.533,8.533V230.4     c0,4.719,3.814,8.533,8.533,8.533c4.719,0,8.533-3.814,8.533-8.533V213.333z" fill="#563bc2" data-original="#000000" style=""/>
			<path d="M221.867,332.8c0,4.719,3.814,8.533,8.533,8.533h17.067c4.719,0,8.533-3.814,8.533-8.533     c0-4.719-3.814-8.533-8.533-8.533H230.4C225.681,324.267,221.867,328.081,221.867,332.8z" fill="#563bc2" data-original="#000000" style=""/>
			<path d="M8.533,17.067H25.6c4.719,0,8.533-3.814,8.533-8.533S30.319,0,25.6,0H8.533C3.814,0,0,3.814,0,8.533     S3.814,17.067,8.533,17.067z" fill="#563bc2" data-original="#000000" style=""/>
			<path d="M213.333,17.067H230.4c4.719,0,8.533-3.814,8.533-8.533S235.119,0,230.4,0h-17.067c-4.719,0-8.533,3.814-8.533,8.533     S208.614,17.067,213.333,17.067z" fill="#563bc2" data-original="#000000" style=""/>
			<path d="M332.8,307.2c-4.719,0-8.533,3.814-8.533,8.533V332.8c0,4.719,3.814,8.533,8.533,8.533c4.719,0,8.533-3.814,8.533-8.533     v-17.067C341.333,311.014,337.519,307.2,332.8,307.2z" fill="#563bc2" data-original="#000000" style=""/>
			<path d="M341.333,59.733c0-4.719-3.814-8.533-8.533-8.533c-4.719,0-8.533,3.814-8.533,8.533V76.8     c0,4.719,3.814,8.533,8.533,8.533c4.719,0,8.533-3.814,8.533-8.533V59.733z" fill="#563bc2" data-original="#000000" style=""/>
			<path d="M315.733,17.067h8.533V25.6c0,4.719,3.814,8.533,8.533,8.533c4.719,0,8.533-3.814,8.533-8.533V8.533     c0-4.719-3.814-8.533-8.533-8.533h-17.067c-4.719,0-8.533,3.814-8.533,8.533S311.014,17.067,315.733,17.067z" fill="#563bc2" data-original="#000000" style=""/>
			<path d="M341.333,264.533c0-4.719-3.814-8.533-8.533-8.533c-4.719,0-8.533,3.814-8.533,8.533V281.6     c0,4.719,3.814,8.533,8.533,8.533c4.719,0,8.533-3.814,8.533-8.533V264.533z" fill="#563bc2" data-original="#000000" style=""/>
			<path d="M332.8,102.4c-4.719,0-8.533,3.814-8.533,8.533V128c0,4.719,3.814,8.533,8.533,8.533c4.719,0,8.533-3.814,8.533-8.533     v-17.067C341.333,106.214,337.519,102.4,332.8,102.4z" fill="#563bc2" data-original="#000000" style=""/>
			<path d="M8.533,68.267c4.719,0,8.533-3.814,8.533-8.533V42.667c0-4.719-3.814-8.533-8.533-8.533S0,37.948,0,42.667v17.067     C0,64.452,3.814,68.267,8.533,68.267z" fill="#563bc2" data-original="#000000" style=""/>
			<path d="M273.067,332.8c0,4.719,3.814,8.533,8.533,8.533h17.067c4.719,0,8.533-3.814,8.533-8.533     c0-4.719-3.814-8.533-8.533-8.533H281.6C276.881,324.267,273.067,328.081,273.067,332.8z" fill="#563bc2" data-original="#000000" style=""/>
			<path d="M93.867,324.267H76.8c-4.719,0-8.533,3.814-8.533,8.533c0,4.719,3.814,8.533,8.533,8.533h17.067     c4.719,0,8.533-3.814,8.533-8.533C102.4,328.081,98.586,324.267,93.867,324.267z" fill="#563bc2" data-original="#000000" style=""/>
			<path d="M136.533,8.533C136.533,3.814,132.719,0,128,0h-17.067c-4.719,0-8.533,3.814-8.533,8.533s3.814,8.533,8.533,8.533H128     C132.719,17.067,136.533,13.252,136.533,8.533z" fill="#563bc2" data-original="#000000" style=""/>
			<path d="M187.733,8.533c0-4.719-3.814-8.533-8.533-8.533h-17.067c-4.719,0-8.533,3.814-8.533,8.533s3.814,8.533,8.533,8.533     H179.2C183.919,17.067,187.733,13.252,187.733,8.533z" fill="#563bc2" data-original="#000000" style=""/>
			<path d="M145.067,324.267H128c-4.719,0-8.533,3.814-8.533,8.533c0,4.719,3.814,8.533,8.533,8.533h17.067     c4.719,0,8.533-3.814,8.533-8.533C153.6,328.081,149.786,324.267,145.067,324.267z" fill="#563bc2" data-original="#000000" style=""/>
			<path d="M8.533,119.467c4.719,0,8.533-3.814,8.533-8.533V93.867c0-4.719-3.814-8.533-8.533-8.533S0,89.148,0,93.867v17.067     C0,115.652,3.814,119.467,8.533,119.467z" fill="#563bc2" data-original="#000000" style=""/>
			<path d="M85.333,8.533C85.333,3.814,81.519,0,76.8,0H59.733C55.014,0,51.2,3.814,51.2,8.533s3.814,8.533,8.533,8.533H76.8     C81.519,17.067,85.333,13.252,85.333,8.533z" fill="#563bc2" data-original="#000000" style=""/>
			<path d="M42.667,324.267H25.6c-4.719,0-8.533,3.814-8.533,8.533c0,4.719,3.814,8.533,8.533,8.533h17.067     c4.719,0,8.533-3.814,8.533-8.533C51.2,328.081,47.386,324.267,42.667,324.267z" fill="#563bc2" data-original="#000000" style=""/>
			<path d="M8.533,221.867c4.719,0,8.533-3.814,8.533-8.533v-17.067c0-4.719-3.814-8.533-8.533-8.533S0,191.548,0,196.267v17.067     C0,218.052,3.814,221.867,8.533,221.867z" fill="#563bc2" data-original="#000000" style=""/>
			<path d="M8.533,170.667c4.719,0,8.533-3.814,8.533-8.533v-17.067c0-4.719-3.814-8.533-8.533-8.533S0,140.348,0,145.067v17.067     C0,166.852,3.814,170.667,8.533,170.667z" fill="#563bc2" data-original="#000000" style=""/>
			<path d="M8.533,273.067c4.719,0,8.533-3.814,8.533-8.533v-17.067c0-4.719-3.814-8.533-8.533-8.533S0,242.748,0,247.467v17.067     C0,269.252,3.814,273.067,8.533,273.067z" fill="#563bc2" data-original="#000000" style=""/>
			<path d="M17.067,298.667c0-4.719-3.814-8.533-8.533-8.533S0,293.948,0,298.667v17.067c0,4.719,3.814,8.533,8.533,8.533     s8.533-3.814,8.533-8.533V298.667z" fill="#563bc2" data-original="#000000" style=""/>
			<path d="M376.414,55.832c-0.021,0.042-0.04,0.084-0.061,0.126c-0.172,0.347-0.323,0.706-0.446,1.078     c-0.009,0.027-0.021,0.053-0.029,0.08c-0.117,0.365-0.206,0.743-0.274,1.128c-0.017,0.096-0.03,0.192-0.044,0.288     c-0.045,0.32-0.074,0.645-0.083,0.976c-0.002,0.071-0.011,0.141-0.011,0.213c0,0.004-0.001,0.008-0.001,0.012     c0,0.374,0.032,0.74,0.079,1.101c0.014,0.107,0.031,0.213,0.049,0.319c0.064,0.385,0.145,0.763,0.259,1.129     c0.003,0.009,0.007,0.018,0.01,0.028c0.122,0.385,0.277,0.755,0.45,1.114c0.019,0.041,0.03,0.083,0.05,0.124l8.533,17.067     c1.502,2.995,4.514,4.719,7.646,4.719c1.28,0,2.586-0.29,3.806-0.896c4.216-2.116,5.931-7.236,3.823-11.452l-1.438-2.875     c21.116,5.38,37.777,22.04,43.157,43.157l-2.875-1.438c-4.215-2.091-9.327-0.393-11.452,3.823     c-2.108,4.215-0.393,9.335,3.823,11.452l17.067,8.533c0.059,0.029,0.12,0.049,0.18,0.077c0.188,0.089,0.38,0.171,0.576,0.246     c0.106,0.041,0.211,0.08,0.318,0.116c0.191,0.065,0.386,0.12,0.583,0.172c0.105,0.027,0.209,0.058,0.315,0.081     c0.213,0.047,0.43,0.081,0.649,0.111c0.089,0.012,0.177,0.031,0.266,0.041c0.305,0.033,0.614,0.052,0.928,0.052     c0.281,0,0.562-0.015,0.841-0.042c0.203-0.02,0.401-0.054,0.599-0.088c0.072-0.012,0.144-0.019,0.215-0.033     c0.252-0.049,0.499-0.113,0.742-0.184c0.018-0.005,0.037-0.009,0.055-0.014c1.402-0.419,2.651-1.188,3.647-2.206l17-17     c3.336-3.337,3.336-8.73,0-12.066c-3.337-3.337-8.73-3.337-12.066,0l-4.735,4.735c-6.803-27.62-28.58-49.397-56.201-56.201     L407.1,48.7c3.337-3.336,3.337-8.73,0-12.066c-3.336-3.337-8.73-3.337-12.066,0l-17,17c-0.329,0.322-0.627,0.673-0.901,1.045     c-0.025,0.034-0.051,0.067-0.076,0.101C376.818,55.114,376.603,55.465,376.414,55.832z" fill="#563bc2" data-original="#000000" style=""/>
			<path d="M503.467,170.667H341.333v-8.533c0-4.719-3.814-8.533-8.533-8.533c-4.719,0-8.533,3.814-8.533,8.533V179.2     c0,4.719,3.814,8.533,8.533,8.533h162.133v307.2h-307.2v-153.6h8.533c4.719,0,8.533-3.814,8.533-8.533     c0-4.719-3.814-8.533-8.533-8.533H179.2c-4.719,0-8.533,3.814-8.533,8.533v170.667c0,4.719,3.814,8.533,8.533,8.533h324.267     c4.719,0,8.533-3.814,8.533-8.533V179.2C512,174.481,508.186,170.667,503.467,170.667z" fill="#563bc2" data-original="#000000" style=""/>
		</g>
	</g>
</g>
<g xmlns="http://www.w3.org/2000/svg">
</g>
<g xmlns="http://www.w3.org/2000/svg">
</g>
<g xmlns="http://www.w3.org/2000/svg">
</g>
<g xmlns="http://www.w3.org/2000/svg">
</g>
<g xmlns="http://www.w3.org/2000/svg">
</g>
<g xmlns="http://www.w3.org/2000/svg">
</g>
<g xmlns="http://www.w3.org/2000/svg">
</g>
<g xmlns="http://www.w3.org/2000/svg">
</g>
<g xmlns="http://www.w3.org/2000/svg">
</g>
<g xmlns="http://www.w3.org/2000/svg">
</g>
<g xmlns="http://www.w3.org/2000/svg">
</g>
<g xmlns="http://www.w3.org/2000/svg">
</g>
<g xmlns="http://www.w3.org/2000/svg">
</g>
<g xmlns="http://www.w3.org/2000/svg">
</g>
<g xmlns="http://www.w3.org/2000/svg">
</g>
</g></svg>
