<svg width="82" height="13" viewBox="0 0 82 13" fill="none" xmlns="http://www.w3.org/2000/svg">
<path d="M12.7312 4.70035L8.67422 4.04851L6.84859 0.198606C6.74717 -0.0662021 6.36176 -0.0662021 6.26033 0.198606L4.35356 4.04851L0.2966 4.63924C0.0328979 4.70035 -0.12938 5.06701 0.134322 5.29108L3.07562 8.32619L2.36565 12.5631C2.3048 12.8279 2.58878 13.1131 2.91334 12.9502L6.52403 10.9539L10.1347 12.9502C10.3579 13.1131 10.6824 12.8483 10.6216 12.5631L9.93188 8.32619L12.8529 5.29108C13.1166 5.08738 12.9949 4.70035 12.7312 4.70035Z" fill="#DFDDDD"/>
<g clip-path="url(#clip0)">
<path d="M29.7359 4.7125L25.6734 4.0625L23.8452 0.223437C23.7437 -0.040625 23.3577 -0.040625 23.2562 0.223437L21.3468 4.0625L17.2843 4.65156C17.0202 4.7125 16.8577 5.07812 17.1218 5.30156L20.0671 8.32812L19.3562 12.5531C19.2952 12.8172 19.5796 13.1016 19.9046 12.9391L23.5202 10.9484L27.1359 12.9391C27.3593 13.1016 27.6843 12.8375 27.6234 12.5531L26.9327 8.32812L29.8577 5.30156C30.1218 5.09844 29.9999 4.7125 29.7359 4.7125Z" fill="#DFDDDD"/>
</g>
<g clip-path="url(#clip1)">
<path d="M46.7552 4.7125L43.0052 4.0625L41.3177 0.223437C41.224 -0.040625 40.8677 -0.040625 40.774 0.223437L39.0115 4.0625L35.2615 4.65156C35.0177 4.7125 34.8677 5.07812 35.1115 5.30156L37.8302 8.32812L37.174 12.5531C37.1177 12.8172 37.3802 13.1016 37.6802 12.9391L41.0177 10.9484L44.3552 12.9391C44.5615 13.1016 44.8615 12.8375 44.8052 12.5531L44.1677 8.32812L46.8677 5.30156C47.1115 5.09844 46.999 4.7125 46.7552 4.7125Z" fill="#DFDDDD"/>
</g>
<g clip-path="url(#clip2)">
<path d="M64.7359 4.7125L60.6734 4.0625L58.8452 0.223437C58.7437 -0.040625 58.3577 -0.040625 58.2562 0.223437L56.3468 4.0625L52.2843 4.65156C52.0202 4.7125 51.8577 5.07812 52.1218 5.30156L55.0671 8.32812L54.3562 12.5531C54.2952 12.8172 54.5796 13.1016 54.9046 12.9391L58.5202 10.9484L62.1359 12.9391C62.3593 13.1016 62.6843 12.8375 62.6234 12.5531L61.9327 8.32812L64.8577 5.30156C65.1218 5.09844 64.9999 4.7125 64.7359 4.7125Z" fill="#DFDDDD"/>
</g>
<g clip-path="url(#clip3)">
<path d="M81.7359 4.7125L77.6734 4.0625L75.8452 0.223437C75.7437 -0.040625 75.3577 -0.040625 75.2562 0.223437L73.3468 4.0625L69.2843 4.65156C69.0202 4.7125 68.8577 5.07812 69.1218 5.30156L72.0671 8.32812L71.3562 12.5531C71.2952 12.8172 71.5796 13.1016 71.9046 12.9391L75.5202 10.9484L79.1359 12.9391C79.3593 13.1016 79.6843 12.8375 79.6234 12.5531L78.9327 8.32812L81.8577 5.30156C82.1218 5.09844 81.9999 4.7125 81.7359 4.7125Z" fill="#DFDDDD"/>
</g>
<defs>
<clipPath id="clip0">
<rect width="13" height="13" fill="white" transform="translate(17)"/>
</clipPath>
<clipPath id="clip1">
<rect width="12" height="13" fill="white" transform="translate(35)"/>
</clipPath>
<clipPath id="clip2">
<rect width="13" height="13" fill="white" transform="translate(52)"/>
</clipPath>
<clipPath id="clip3">
<rect width="13" height="13" fill="white" transform="translate(69)"/>
</clipPath>
</defs>
</svg>
