<svg width="10" height="10" viewBox="0 0 10 10" fill="none" xmlns="http://www.w3.org/2000/svg">
<path d="M5 7.36328C5.87373 7.36328 6.58203 6.65498 6.58203 5.78125C6.58203 4.90752 5.87373 4.19922 5 4.19922C4.12627 4.19922 3.41797 4.90752 3.41797 5.78125C3.41797 6.65498 4.12627 7.36328 5 7.36328Z" fill="#563BC2"/>
<path d="M7.31043 1.77734L7.20932 1.27182C7.15475 0.998887 6.91311 0.800781 6.63477 0.800781H3.36512C3.0868 0.800781 2.84514 0.998887 2.79057 1.27182L2.68945 1.77734H7.31043Z" fill="#563BC2"/>
<path d="M9.12109 2.36328C8.43314 2.36328 1.20086 2.36328 0.878906 2.36328C0.394277 2.36328 0 2.75756 0 3.24219V8.32031C0 8.80494 0.394277 9.19922 0.878906 9.19922H9.12109C9.60572 9.19922 10 8.80494 10 8.32031V3.24219C10 2.75756 9.60572 2.36328 9.12109 2.36328ZM2.5 4.19922H1.5625C1.4007 4.19922 1.26953 4.06805 1.26953 3.90625C1.26953 3.74445 1.4007 3.61328 1.5625 3.61328H2.5C2.6618 3.61328 2.79297 3.74445 2.79297 3.90625C2.79297 4.06805 2.6618 4.19922 2.5 4.19922ZM5 7.94922C3.80457 7.94922 2.83203 6.97668 2.83203 5.78125C2.83203 4.58582 3.80457 3.61328 5 3.61328C6.19543 3.61328 7.16797 4.58582 7.16797 5.78125C7.16797 6.97668 6.19543 7.94922 5 7.94922Z" fill="#563BC2"/>
</svg>
