<svg width="9" height="9" viewBox="0 0 9 9" fill="none" xmlns="http://www.w3.org/2000/svg">
<path d="M4.5 0C2.01855 0 0 2.01874 0 4.5C0 6.98126 2.01855 9 4.5 9C6.98145 9 9 6.98126 9 4.5C9 2.01874 6.98145 0 4.5 0ZM6.28894 4.65766L3.66395 6.34516C3.63319 6.36511 3.59766 6.37501 3.56251 6.37501C3.53174 6.37501 3.50061 6.36731 3.47279 6.35212C3.41235 6.31916 3.375 6.25616 3.375 6.1875V2.8125C3.375 2.74384 3.41235 2.68084 3.47279 2.64788C3.53211 2.61529 3.60645 2.6173 3.66395 2.65484L6.28894 4.34234C6.34242 4.37676 6.37501 4.43628 6.37501 4.5C6.37501 4.56372 6.34242 4.62322 6.28894 4.65766Z" fill="#563BC2"/>
</svg>
