<svg width="10" height="10" viewBox="0 0 10 10" fill="none" xmlns="http://www.w3.org/2000/svg">
<path d="M5.81133 0.366064C5.69533 0.31073 5.55867 0.325397 5.45867 0.406064L2.216 3.00006H0.666667C0.299333 3.00006 0 3.2994 0 3.66673V6.3334C0 6.7014 0.299333 7.00006 0.666667 7.00006H2.216L5.458 9.59406C5.51867 9.64206 5.59267 9.66673 5.66667 9.66673C5.716 9.66673 5.76533 9.6554 5.81133 9.6334C5.92667 9.57806 6 9.4614 6 9.3334V0.66673C6 0.53873 5.92667 0.422064 5.81133 0.366064Z" fill="#A7A7A7"/>
<path d="M7.68762 2.6428C7.55629 2.51347 7.34562 2.51547 7.21629 2.64547C7.08696 2.7768 7.08829 2.98747 7.21896 3.11747C7.72296 3.6148 8.00029 4.28347 8.00029 5.00013C8.00029 5.7168 7.72296 6.38547 7.21896 6.8828C7.08829 7.01147 7.08696 7.2228 7.21629 7.35413C7.28162 7.42013 7.36762 7.4528 7.45296 7.4528C7.53762 7.4528 7.62229 7.4208 7.68762 7.35613C8.31962 6.73413 8.66695 5.8968 8.66695 5.00013C8.66695 4.10347 8.31962 3.26613 7.68762 2.6428Z" fill="#A7A7A7"/>
<path d="M8.62782 1.70344C8.49649 1.57344 8.28582 1.57478 8.15582 1.70544C8.02649 1.83611 8.02782 2.04744 8.15782 2.17678C8.91583 2.92811 9.33316 3.93078 9.33316 5.00011C9.33316 6.06944 8.91583 7.07144 8.15782 7.82277C8.02782 7.95277 8.02649 8.16411 8.15582 8.29477C8.22182 8.36011 8.30716 8.39277 8.39249 8.39277C8.47716 8.39277 8.56249 8.36077 8.62782 8.29611C9.51316 7.41944 9.99983 6.24878 9.99983 5.00011C9.99983 3.75144 9.51316 2.58078 8.62782 1.70344Z" fill="#A7A7A7"/>
</svg>
